<?xml version="1.0" encoding="utf-8"?>
<!-- Generator: Adobe Illustrator 24.1.3, SVG Export Plug-In . SVG Version: 6.00 Build 0)  -->
<svg version="1.1" id="Слой_1" xmlns="http://www.w3.org/2000/svg" xmlns:xlink="http://www.w3.org/1999/xlink" x="0px" y="0px"
	 viewBox="0 0 108 52" style="enable-background:new 0 0 108 52;" xml:space="preserve">
<style type="text/css">
	.st0{fill:#FF8F00;}
	.st1{fill:#FFA000;}
	.st2{fill:#FF6F00;}
	.st3{fill:#FFC400;}
	.st4{fill:none;}
	.st5{font-family:'EnigmaticUnicode';}
	.st6{font-size:15px;}
</style>
<path class="st0" d="M7,38L22.23,9.44c0.32-0.6,1.19-0.59,1.49,0.02L29,20L7,38z"/>
<path class="st1" d="M7,37.99l5.55-34.2c0.15-0.89,1.35-1.09,1.77-0.29L25,23.99L7,37.99z"/>
<path class="st2" d="M7.01,37.99l0.2-0.16l17.53-14.34l-4.94-9.48L7.01,37.99z"/>
<path class="st3" d="M7,38l26.67-25.71c0.56-0.54,1.49-0.22,1.61,0.55L39,38l-15,8.74c-0.61,0.34-1.35,0.34-1.96,0L7,38z"/>
<rect x="37.2" y="9" class="st4" width="64" height="40.4"/>
<text transform="matrix(1 0 0 1 43.1069 20.562)"><tspan x="0" y="0" class="st5 st6">Теплый </tspan><tspan x="12.5" y="18" class="st5 st6">Дом</tspan></text>
</svg>
